
<svg height="300" class="nvd3-svg"><g class="nvd3 nv-wrap nv-multiBarWithLegend" transform="translate(60,30)"><g><g class="nv-x nv-axis nvd3-svg" transform="translate(0,220)"><g class="nvd3 nv-wrap nv-axis"><g><g class="tick" style="opacity: 1;" transform="translate(56.801170349121094,0)"><line y2="-220" style="opacity: 1;" x2="0"></line><text dy=".71em" style="text-anchor: middle; opacity: 1;" y="7" transform="translate(0,0)" x="0">1</text></g><g class="tick" style="opacity: 1;" transform="translate(160.07601928710938,0)"><line y2="-220" style="opacity: 1;" x2="0"></line><text dy=".71em" style="text-anchor: middle; opacity: 1;" y="7" transform="translate(0,0)" x="0">2</text></g><g class="tick" style="opacity: 1;" transform="translate(263.35089111328125,0)"><line y2="-220" style="opacity: 1;" x2="0"></line><text dy=".71em" style="text-anchor: middle; opacity: 1;" y="7" transform="translate(0,0)" x="0">3</text></g><g class="tick" style="opacity: 1;" transform="translate(366.625732421875,0)"><line y2="-220" style="opacity: 1;" x2="0"></line><text dy=".71em" style="text-anchor: middle; opacity: 1;" y="7" transform="translate(0,0)" x="0">4</text></g><g class="tick" style="opacity: 1;" transform="translate(469.90057373046875,0)"><line y2="-220" style="opacity: 1;" x2="0"></line><text dy=".71em" style="text-anchor: middle; opacity: 1;" y="7" transform="translate(0,0)" x="0">5</text></g><g class="tick" style="opacity: 1;" transform="translate(573.1754150390625,0)"><line y2="-220" style="opacity: 1;" x2="0"></line><text dy=".71em" style="text-anchor: middle; opacity: 1;" y="7" transform="translate(0,0)" x="0">6</text></g><g class="tick" style="opacity: 1;" transform="translate(676.4503173828125,0)"><line y2="-220" style="opacity: 1;" x2="0"></line><text dy=".71em" style="text-anchor: middle; opacity: 1;" y="7" transform="translate(0,0)" x="0">7</text></g><g class="tick" style="opacity: 1;" transform="translate(779.7251586914062,0)"><line y2="-220" style="opacity: 1;" x2="0"></line><text dy=".71em" style="text-anchor: middle; opacity: 1;" y="7" transform="translate(0,0)" x="0">8</text></g><g class="tick" style="opacity: 1;" transform="translate(883,0)"><line y2="-220" style="opacity: 1;" x2="0"></line><text dy=".71em" style="text-anchor: middle; opacity: 1;" y="7" transform="translate(0,0)" x="0">9</text></g><g class="tick" style="opacity: 1;" transform="translate(986.2748413085938,0)"><line y2="-220" style="opacity: 1;" x2="0"></line><text dy=".71em" style="text-anchor: middle; opacity: 1;" y="7" transform="translate(0,0)" x="0">10</text></g><g class="tick" style="opacity: 1;" transform="translate(1089.5496826171875,0)"><line y2="-220" style="opacity: 1;" x2="0"></line><text dy=".71em" style="text-anchor: middle; opacity: 1;" y="7" transform="translate(0,0)" x="0">11</text></g><g class="tick" style="opacity: 1;" transform="translate(1192.8245849609375,0)"><line y2="-220" style="opacity: 1;" x2="0"></line><text dy=".71em" style="text-anchor: middle; opacity: 1;" y="7" transform="translate(0,0)" x="0">12</text></g><g class="tick" style="opacity: 1;" transform="translate(1296.099365234375,0)"><line y2="-220" style="opacity: 1;" x2="0"></line><text dy=".71em" style="text-anchor: middle; opacity: 1;" y="7" transform="translate(0,0)" x="0">13</text></g><g class="tick" style="opacity: 1;" transform="translate(1399.374267578125,0)"><line y2="-220" style="opacity: 1;" x2="0"></line><text dy=".71em" style="text-anchor: middle; opacity: 1;" y="7" transform="translate(0,0)" x="0">15</text></g><g class="tick" style="opacity: 1;" transform="translate(1502.649169921875,0)"><line y2="-220" style="opacity: 1;" x2="0"></line><text dy=".71em" style="text-anchor: middle; opacity: 1;" y="7" transform="translate(0,0)" x="0">16</text></g><g class="tick" style="opacity: 1;" transform="translate(1605.9239501953125,0)"><line y2="-220" style="opacity: 1;" x2="0"></line><text dy=".71em" style="text-anchor: middle; opacity: 1;" y="7" transform="translate(0,0)" x="0">20</text></g><g class="tick" style="opacity: 1;" transform="translate(1709.1988525390625,0)"><line y2="-220" style="opacity: 1;" x2="0"></line><text dy=".71em" style="text-anchor: middle; opacity: 1;" y="7" transform="translate(0,0)" x="0">24</text></g><path class="domain" d="M0,0V0H1766V0"></path><text class="nv-axislabel" text-anchor="middle" y="36" x="883.0000000000001" style="opacity: 1;"></text></g></g></g><g class="nv-y nv-axis nvd3-svg"><g class="nvd3 nv-wrap nv-axis"><g><g class="tick zero" style="opacity: 1;" transform="translate(0,220)"><line x2="1766" y2="0"></line><text dy=".32em" style="text-anchor: end;" x="-3" opacity="0" y="0">0</text></g><g class="tick" style="opacity: 1;" transform="translate(0,188.57142639160156)"><line x2="1766" y2="0"></line><text dy=".32em" style="text-anchor: end;" x="-3" opacity="1" y="0">2</text></g><g class="tick" style="opacity: 1;" transform="translate(0,157.14285278320312)"><line x2="1766" y2="0"></line><text dy=".32em" style="text-anchor: end;" x="-3" opacity="1" y="0">4</text></g><g class="tick" style="opacity: 1;" transform="translate(0,125.71428680419922)"><line x2="1766" y2="0"></line><text dy=".32em" style="text-anchor: end;" x="-3" opacity="1" y="0">6</text></g><g class="tick" style="opacity: 1;" transform="translate(0,94.28571319580078)"><line x2="1766" y2="0"></line><text dy=".32em" style="text-anchor: end;" x="-3" opacity="1" y="0">8</text></g><g class="tick" style="opacity: 1;" transform="translate(0,62.85714340209961)"><line x2="1766" y2="0"></line><text dy=".32em" style="text-anchor: end;" x="-3" opacity="1" y="0">10</text></g><g class="tick" style="opacity: 1;" transform="translate(0,31.428571701049805)"><line x2="1766" y2="0"></line><text dy=".32em" style="text-anchor: end;" x="-3" opacity="1" y="0">12</text></g><g class="tick" style="opacity: 1;" transform="translate(0,0)" opacity="0"><line x2="1766" y2="0"></line><text dy=".32em" style="text-anchor: end;" x="-3" opacity="0" y="0">14</text></g><path class="domain" d="M0,0H0V220H0"></path><text class="nv-axislabel" style="text-anchor: middle;" transform="rotate(-90)" y="-100" x="-110"></text></g><g class="nv-axisMaxMin nv-axisMaxMin-y nv-axisMin-y" transform="translate(0,220)"><text style="opacity: 1;" dy=".32em" y="0" x="-3" text-anchor="end">0</text></g><g class="nv-axisMaxMin nv-axisMaxMin-y nv-axisMax-y" transform="translate(0,0)"><text style="opacity: 1;" dy=".32em" y="0" x="-3" text-anchor="end">14</text></g></g></g><g class="nv-barsWrap nvd3-svg"><g class="nvd3 nv-wrap nv-multibar" transform="translate(0,0)"><defs><clipPath id="nv-edge-clip-9226"><rect width="1766" height="220"></rect></clipPath></defs><g clip-path="url(#nv-edge-clip-9226)"><g class="nv-groups"><g style="stroke-opacity: 1; fill-opacity: 0.75; fill: rgb(31, 119, 180); stroke: rgb(31, 119, 180);" class="nv-group nv-series-0"><rect class="nv-bar positive" x="0" y="78.57142857142856" height="141.42857142857144" width="92.94736842105264" transform="translate(10.327485380116961,0)" style="fill: rgb(31, 119, 180); stroke: rgb(31, 119, 180);"></rect><rect class="nv-bar positive" x="0" y="94.28571428571429" height="125.71428571428571" width="92.94736842105264" transform="translate(113.60233918128657,0)" style="fill: rgb(31, 119, 180); stroke: rgb(31, 119, 180);"></rect><rect class="nv-bar positive" x="0" y="78.57142857142856" height="141.42857142857144" width="92.94736842105264" transform="translate(216.87719298245617,0)" style="fill: rgb(31, 119, 180); stroke: rgb(31, 119, 180);"></rect><rect class="nv-bar positive" x="0" y="0" height="220" width="92.94736842105264" transform="translate(320.1520467836258,0)" style="fill: rgb(31, 119, 180); stroke: rgb(31, 119, 180);"></rect><rect class="nv-bar positive" x="0" y="78.57142857142856" height="141.42857142857144" width="92.94736842105264" transform="translate(423.42690058479536,0)" style="fill: rgb(31, 119, 180); stroke: rgb(31, 119, 180);"></rect><rect class="nv-bar positive" x="0" y="110" height="110" width="92.94736842105264" transform="translate(526.7017543859649,0)" style="fill: rgb(31, 119, 180); stroke: rgb(31, 119, 180);"></rect><rect class="nv-bar positive" x="0" y="157.14285714285714" height="62.85714285714286" width="92.94736842105264" transform="translate(629.9766081871346,0)" style="fill: rgb(31, 119, 180); stroke: rgb(31, 119, 180);"></rect><rect class="nv-bar positive" x="0" y="94.28571428571429" height="125.71428571428571" width="92.94736842105264" transform="translate(733.2514619883042,0)" style="fill: rgb(31, 119, 180); stroke: rgb(31, 119, 180);"></rect><rect class="nv-bar positive" x="0" y="172.85714285714286" height="47.14285714285714" width="92.94736842105264" transform="translate(836.5263157894738,0)" style="fill: rgb(31, 119, 180); stroke: rgb(31, 119, 180);"></rect><rect class="nv-bar positive" x="0" y="47.142857142857146" height="172.85714285714286" width="92.94736842105264" transform="translate(939.8011695906433,0)" style="fill: rgb(31, 119, 180); stroke: rgb(31, 119, 180);"></rect><rect class="nv-bar positive" x="0" y="188.57142857142858" height="31.428571428571416" width="92.94736842105264" transform="translate(1043.076023391813,0)" style="fill: rgb(31, 119, 180); stroke: rgb(31, 119, 180);"></rect><rect class="nv-bar positive" x="0" y="204.2857142857143" height="15.714285714285694" width="92.94736842105264" transform="translate(1146.3508771929826,0)" style="fill: rgb(31, 119, 180); stroke: rgb(31, 119, 180);"></rect><rect class="nv-bar positive" x="0" y="204.2857142857143" height="15.714285714285694" width="92.94736842105264" transform="translate(1249.6257309941523,0)" style="fill: rgb(31, 119, 180); stroke: rgb(31, 119, 180);"></rect><rect class="nv-bar positive" x="0" y="188.57142857142858" height="31.428571428571416" width="92.94736842105264" transform="translate(1352.9005847953217,0)" style="fill: rgb(31, 119, 180); stroke: rgb(31, 119, 180);"></rect><rect class="nv-bar positive" x="0" y="188.57142857142858" height="31.428571428571416" width="92.94736842105264" transform="translate(1456.1754385964914,0)" style="fill: rgb(31, 119, 180); stroke: rgb(31, 119, 180);"></rect><rect class="nv-bar positive" x="0" y="141.42857142857142" height="78.57142857142858" width="92.94736842105264" transform="translate(1559.4502923976609,0)" style="fill: rgb(31, 119, 180); stroke: rgb(31, 119, 180);"></rect><rect class="nv-bar positive" x="0" y="204.2857142857143" height="15.714285714285694" width="92.94736842105264" transform="translate(1662.7251461988305,0)" style="fill: rgb(31, 119, 180); stroke: rgb(31, 119, 180);"></rect></g></g></g></g></g><g class="nv-legendWrap nvd3-svg" transform="translate(180,-30)"><g class="nvd3 nv-legend" transform="translate(0,5)"><g transform="translate(1525.3333339691162,5)"><g class="nv-series" transform="translate(0,5)"><circle style="stroke-width: 2px; fill: rgb(31, 119, 180); fill-opacity: 1; stroke: rgb(31, 119, 180);" class="nv-legend-symbol" r="5"></circle><text text-anchor="start" class="nv-legend-text" dy=".32em" dx="8" fill="#000">value</text></g></g></g></g><g class="nv-controlsWrap nvd3-svg" transform="translate(0,-30)"><g class="nvd3 nv-legend" transform="translate(0,5)"><g transform="translate(26,5)"><g class="nv-series" transform="translate(0,5)"><circle style="stroke-width: 2px; fill: rgb(68, 68, 68); fill-opacity: 1; stroke: rgb(68, 68, 68);" class="nv-legend-symbol" r="5"></circle><text text-anchor="start" class="nv-legend-text" dy=".32em" dx="8" fill="#000">Grouped</text></g><g class="nv-series" transform="translate(78.66666793823242,5)"><circle style="stroke-width: 2px; fill: rgb(68, 68, 68); fill-opacity: 0; stroke: rgb(68, 68, 68);" class="nv-legend-symbol" r="5"></circle><text text-anchor="start" class="nv-legend-text" dy=".32em" dx="8" fill="#000">Stacked</text></g></g></g></g><g class="nv-interactive"></g></g></g></svg>