<svg height="300" class="nvd3-svg"><g class="nvd3 nv-wrap nv-multiBarWithLegend" transform="translate(60,30)"><g><g class="nv-x nv-axis nvd3-svg" transform="translate(0,220)"><g class="nvd3 nv-wrap nv-axis"><g><g class="tick zero" style="opacity: 1;" transform="translate(80.27272727272727,0)"><line y2="-220" style="opacity: 1;" x2="0"></line><text dy=".71em" style="text-anchor: middle; opacity: 1;" y="7" transform="translate(0,0)" x="0">Amazon Corretto</text></g><g class="tick zero" style="opacity: 1;" transform="translate(226.22314049586777,0)"><line y2="-220" style="opacity: 1;" x2="0"></line><text dy=".71em" style="text-anchor: middle; opacity: 1;" y="7" transform="translate(0,0)" x="0">Azul Zulu/Zing</text></g><g class="tick zero" style="opacity: 1;" transform="translate(372.1735537190082,0)"><line y2="-220" style="opacity: 1;" x2="0"></line><text dy=".71em" style="text-anchor: middle; opacity: 1;" y="7" transform="translate(0,0)" x="0">Eclipse Adoptium/AdoptOpenJDK</text></g><g class="tick zero" style="opacity: 1;" transform="translate(518.1239669421487,0)"><line y2="-220" style="opacity: 1;" x2="0"></line><text dy=".71em" style="text-anchor: middle; opacity: 1;" y="7" transform="translate(0,0)" x="0">IBM Semeru/Open J9</text></g><g class="tick zero" style="opacity: 1;" transform="translate(664.0743801652892,0)"><line y2="-220" style="opacity: 1;" x2="0"></line><text dy=".71em" style="text-anchor: middle; opacity: 1;" y="7" transform="translate(0,0)" x="0">Liberica JDK</text></g><g class="tick zero" style="opacity: 1;" transform="translate(810.0247933884297,0)"><line y2="-220" style="opacity: 1;" x2="0"></line><text dy=".71em" style="text-anchor: middle; opacity: 1;" y="7" transform="translate(0,0)" x="0">Microsoft build of OpenJDK</text></g><g class="tick zero" style="opacity: 1;" transform="translate(955.9752066115702,0)"><line y2="-220" style="opacity: 1;" x2="0"></line><text dy=".71em" style="text-anchor: middle; opacity: 1;" y="7" transform="translate(0,0)" x="0">Open JDK via sdkman</text></g><g class="tick zero" style="opacity: 1;" transform="translate(1101.9256198347107,0)"><line y2="-220" style="opacity: 1;" x2="0"></line><text dy=".71em" style="text-anchor: middle; opacity: 1;" y="7" transform="translate(0,0)" x="0">OpenJDK en mi distribución Linux</text></g><g class="tick zero" style="opacity: 1;" transform="translate(1247.8760330578511,0)"><line y2="-220" style="opacity: 1;" x2="0"></line><text dy=".71em" style="text-anchor: middle; opacity: 1;" y="7" transform="translate(0,0)" x="0">Oracle GraalVM</text></g><g class="tick zero" style="opacity: 1;" transform="translate(1393.8264462809916,0)"><line y2="-220" style="opacity: 1;" x2="0"></line><text dy=".71em" style="text-anchor: middle; opacity: 1;" y="7" transform="translate(0,0)" x="0">Oracle JDK</text></g><g class="tick zero" style="opacity: 1;" transform="translate(1539.776859504132,0)"><line y2="-220" style="opacity: 1;" x2="0"></line><text dy=".71em" style="text-anchor: middle; opacity: 1;" y="7" transform="translate(0,0)" x="0">Oracle OpenJDK</text></g><g class="tick zero" style="opacity: 1;" transform="translate(1685.7272727272725,0)"><line y2="-220" style="opacity: 1;" x2="0"></line><text dy=".71em" style="text-anchor: middle; opacity: 1;" y="7" transform="translate(0,0)" x="0">Red Hat OpenJDK</text></g><path class="domain" d="M0,0V0H1766V0"></path><text class="nv-axislabel" text-anchor="middle" y="36" x="882.9999999999999" style="opacity: 1;"></text></g></g></g><g class="nv-y nv-axis nvd3-svg"><g class="nvd3 nv-wrap nv-axis"><g><g class="tick zero" style="opacity: 1;" transform="translate(0,220)"><line x2="1766" y2="0"></line><text dy=".32em" style="text-anchor: end;" x="-3" opacity="0" y="0">0</text></g><g class="tick" style="opacity: 1;" transform="translate(0,191.7948717948718)"><line x2="1766" y2="0"></line><text dy=".32em" style="text-anchor: end;" x="-3" opacity="1" y="0">10</text></g><g class="tick" style="opacity: 1;" transform="translate(0,163.5897435897436)"><line x2="1766" y2="0"></line><text dy=".32em" style="text-anchor: end;" x="-3" opacity="1" y="0">20</text></g><g class="tick" style="opacity: 1;" transform="translate(0,135.3846153846154)"><line x2="1766" y2="0"></line><text dy=".32em" style="text-anchor: end;" x="-3" opacity="1" y="0">30</text></g><g class="tick" style="opacity: 1;" transform="translate(0,107.17948717948718)"><line x2="1766" y2="0"></line><text dy=".32em" style="text-anchor: end;" x="-3" opacity="1" y="0">40</text></g><g class="tick" style="opacity: 1;" transform="translate(0,78.97435897435896)"><line x2="1766" y2="0"></line><text dy=".32em" style="text-anchor: end;" x="-3" opacity="1" y="0">50</text></g><g class="tick" style="opacity: 1;" transform="translate(0,50.76923076923076)"><line x2="1766" y2="0"></line><text dy=".32em" style="text-anchor: end;" x="-3" opacity="1" y="0">60</text></g><g class="tick" style="opacity: 1;" transform="translate(0,22.56410256410256)"><line x2="1766" y2="0"></line><text dy=".32em" style="text-anchor: end;" x="-3" opacity="1" y="0">70</text></g><path class="domain" d="M0,0H0V220H0"></path><text class="nv-axislabel" style="text-anchor: middle;" transform="rotate(-90)" y="-100" x="-110"></text></g><g class="nv-axisMaxMin nv-axisMaxMin-y nv-axisMin-y" transform="translate(0,220)"><text style="opacity: 1;" dy=".32em" y="0" x="-3" text-anchor="end">0</text></g><g class="nv-axisMaxMin nv-axisMaxMin-y nv-axisMax-y" transform="translate(0,0)"><text style="opacity: 1;" dy=".32em" y="0" x="-3" text-anchor="end">78</text></g></g></g><g class="nv-barsWrap nvd3-svg"><g class="nvd3 nv-wrap nv-multibar" transform="translate(0,0)"><defs><clipPath id="nv-edge-clip-1865"><rect width="1766" height="220"></rect></clipPath></defs><g clip-path="url(#nv-edge-clip-5772)"><g class="nv-groups"><g style="stroke-opacity: 1; fill-opacity: 0.75; fill: rgb(31, 119, 180); stroke: rgb(31, 119, 180);" class="nv-group nv-series-0"><rect class="nv-bar positive" x="0" y="203.0769230769231" height="16.923076923076906" width="131.35537190082644" transform="translate(14.59504132231405,0)" style="fill: rgb(31, 119, 180); stroke: rgb(31, 119, 180);"></rect><rect class="nv-bar positive" x="0" y="191.7948717948718" height="28.205128205128204" width="131.35537190082644" transform="translate(160.54545454545453,0)" style="fill: rgb(31, 119, 180); stroke: rgb(31, 119, 180);"></rect><rect class="nv-bar positive" x="0" y="174.8717948717949" height="45.12820512820511" width="131.35537190082644" transform="translate(306.495867768595,0)" style="fill: rgb(31, 119, 180); stroke: rgb(31, 119, 180);"></rect><rect class="nv-bar positive" x="0" y="217.17948717948718" height="2.8205128205128176" width="131.35537190082644" transform="translate(452.44628099173553,0)" style="fill: rgb(31, 119, 180); stroke: rgb(31, 119, 180);"></rect><rect class="nv-bar positive" x="0" y="200.25641025641025" height="19.74358974358975" width="131.35537190082644" transform="translate(598.396694214876,0)" style="fill: rgb(31, 119, 180); stroke: rgb(31, 119, 180);"></rect><rect class="nv-bar positive" x="0" y="211.53846153846155" height="8.461538461538453" width="131.35537190082644" transform="translate(744.3471074380165,0)" style="fill: rgb(31, 119, 180); stroke: rgb(31, 119, 180);"></rect><rect class="nv-bar positive" x="0" y="217.17948717948718" height="2.8205128205128176" width="131.35537190082644" transform="translate(890.297520661157,0)" style="fill: rgb(31, 119, 180); stroke: rgb(31, 119, 180);"></rect><rect class="nv-bar positive" x="0" y="78.97435897435896" height="141.02564102564105" width="131.35537190082644" transform="translate(1036.2479338842975,0)" style="fill: rgb(31, 119, 180); stroke: rgb(31, 119, 180);"></rect><rect class="nv-bar positive" x="0" y="194.6153846153846" height="25.384615384615387" width="131.35537190082644" transform="translate(1182.198347107438,0)" style="fill: rgb(31, 119, 180); stroke: rgb(31, 119, 180);"></rect><rect class="nv-bar positive" x="0" y="0" height="220" width="131.35537190082644" transform="translate(1328.1487603305784,0)" style="fill: rgb(31, 119, 180); stroke: rgb(31, 119, 180);"></rect><rect class="nv-bar positive" x="0" y="217.17948717948718" height="2.8205128205128176" width="131.35537190082644" transform="translate(1474.0991735537189,0)" style="fill: rgb(31, 119, 180); stroke: rgb(31, 119, 180);"></rect><rect class="nv-bar positive" x="0" y="211.53846153846155" height="8.461538461538453" width="131.35537190082644" transform="translate(1620.0495867768593,0)" style="fill: rgb(31, 119, 180); stroke: rgb(31, 119, 180);"></rect></g></g></g></g></g><g class="nv-legendWrap nvd3-svg" transform="translate(180,-30)"><g class="nvd3 nv-legend" transform="translate(0,5)"><g transform="translate(1524.6666660308838,5)"><g class="nv-series" transform="translate(0,5)"><circle style="stroke-width: 2px; fill: rgb(31, 119, 180); fill-opacity: 1; stroke: rgb(31, 119, 180);" class="nv-legend-symbol" r="5"></circle><text text-anchor="start" class="nv-legend-text" dy=".32em" dx="8" fill="#000">count</text></g></g></g></g><g class="nv-controlsWrap nvd3-svg" transform="translate(0,-30)"><g class="nvd3 nv-legend" transform="translate(0,5)"><g transform="translate(26,5)"><g class="nv-series" transform="translate(0,5)"><circle style="stroke-width: 2px; fill: rgb(68, 68, 68); fill-opacity: 1; stroke: rgb(68, 68, 68);" class="nv-legend-symbol" r="5"></circle><text text-anchor="start" class="nv-legend-text" dy=".32em" dx="8" fill="#000">Grouped</text></g><g class="nv-series" transform="translate(78.66666793823242,5)"><circle style="stroke-width: 2px; fill: rgb(68, 68, 68); fill-opacity: 0; stroke: rgb(68, 68, 68);" class="nv-legend-symbol" r="5"></circle><text text-anchor="start" class="nv-legend-text" dy=".32em" dx="8" fill="#000">Stacked</text></g></g></g></g><g class="nv-interactive"></g></g></g></svg>