<svg height="300" class="nvd3-svg"><g class="nvd3 nv-wrap nv-multiBarWithLegend" transform="translate(60,30)"><g><g class="nv-x nv-axis nvd3-svg" transform="translate(0,220)"><g class="nvd3 nv-wrap nv-axis"><g><g class="tick zero" style="opacity: 1;" transform="translate(96.16831683168317,0)"><line y2="-220" style="opacity: 1;" x2="0"></line><text dy=".71em" style="text-anchor: middle; opacity: 1;" y="7" transform="translate(0,0)" x="0">Amazon Corretto</text></g><g class="tick zero" style="opacity: 1;" transform="translate(271.01980198019805,0)"><line y2="-220" style="opacity: 1;" x2="0"></line><text dy=".71em" style="text-anchor: middle; opacity: 1;" y="7" transform="translate(0,0)" x="0">Azul Zulu/Zing</text></g><g class="tick zero" style="opacity: 1;" transform="translate(445.8712871287129,0)"><line y2="-220" style="opacity: 1;" x2="0"></line><text dy=".71em" style="text-anchor: middle; opacity: 1;" y="7" transform="translate(0,0)" x="0">Eclipse Adoptium/AdoptOpenJDK</text></g><g class="tick zero" style="opacity: 1;" transform="translate(620.7227722772278,0)"><line y2="-220" style="opacity: 1;" x2="0"></line><text dy=".71em" style="text-anchor: middle; opacity: 1;" y="7" transform="translate(0,0)" x="0">IBM Semeru/Open J9</text></g><g class="tick zero" style="opacity: 1;" transform="translate(795.5742574257426,0)"><line y2="-220" style="opacity: 1;" x2="0"></line><text dy=".71em" style="text-anchor: middle; opacity: 1;" y="7" transform="translate(0,0)" x="0">LibericaJDK</text></g><g class="tick zero" style="opacity: 1;" transform="translate(970.4257425742575,0)"><line y2="-220" style="opacity: 1;" x2="0"></line><text dy=".71em" style="text-anchor: middle; opacity: 1;" y="7" transform="translate(0,0)" x="0">Microsoft build of OpenJDK</text></g><g class="tick zero" style="opacity: 1;" transform="translate(1145.2772277227723,0)"><line y2="-220" style="opacity: 1;" x2="0"></line><text dy=".71em" style="text-anchor: middle; opacity: 1;" y="7" transform="translate(0,0)" x="0">OpenJDK en mi distribución Linux</text></g><g class="tick zero" style="opacity: 1;" transform="translate(1320.128712871287,0)"><line y2="-220" style="opacity: 1;" x2="0"></line><text dy=".71em" style="text-anchor: middle; opacity: 1;" y="7" transform="translate(0,0)" x="0">Oracle GraalVM</text></g><g class="tick zero" style="opacity: 1;" transform="translate(1494.980198019802,0)"><line y2="-220" style="opacity: 1;" x2="0"></line><text dy=".71em" style="text-anchor: middle; opacity: 1;" y="7" transform="translate(0,0)" x="0">Oracle JDK</text></g><g class="tick zero" style="opacity: 1;" transform="translate(1669.8316831683169,0)"><line y2="-220" style="opacity: 1;" x2="0"></line><text dy=".71em" style="text-anchor: middle; opacity: 1;" y="7" transform="translate(0,0)" x="0">Red Hat OpenJDK</text></g><path class="domain" d="M0,0V0H1766V0"></path><text class="nv-axislabel" text-anchor="middle" y="36" x="883.0000000000001" style="opacity: 1;"></text></g></g></g><g class="nv-y nv-axis nvd3-svg"><g class="nvd3 nv-wrap nv-axis"><g><g class="tick zero" style="opacity: 1;" transform="translate(0,220)"><line x2="1766" y2="0"></line><text dy=".32em" style="text-anchor: end;" x="-3" opacity="0" y="0">0</text></g><g class="tick" style="opacity: 1;" transform="translate(0,185.0793650793651)"><line x2="1766" y2="0"></line><text dy=".32em" style="text-anchor: end;" x="-3" opacity="1" y="0">10</text></g><g class="tick" style="opacity: 1;" transform="translate(0,150.15873015873015)"><line x2="1766" y2="0"></line><text dy=".32em" style="text-anchor: end;" x="-3" opacity="1" y="0">20</text></g><g class="tick" style="opacity: 1;" transform="translate(0,115.23809523809524)"><line x2="1766" y2="0"></line><text dy=".32em" style="text-anchor: end;" x="-3" opacity="1" y="0">30</text></g><g class="tick" style="opacity: 1;" transform="translate(0,80.31746031746033)"><line x2="1766" y2="0"></line><text dy=".32em" style="text-anchor: end;" x="-3" opacity="1" y="0">40</text></g><g class="tick" style="opacity: 1;" transform="translate(0,45.396825396825406)"><line x2="1766" y2="0"></line><text dy=".32em" style="text-anchor: end;" x="-3" opacity="1" y="0">50</text></g><g class="tick" style="opacity: 1;" transform="translate(0,10.476190476190489)"><line x2="1766" y2="0"></line><text dy=".32em" style="text-anchor: end;" x="-3" opacity="1" y="0">60</text></g><path class="domain" d="M0,0H0V220H0"></path><text class="nv-axislabel" style="text-anchor: middle;" transform="rotate(-90)" y="-100" x="-110"></text></g><g class="nv-axisMaxMin nv-axisMaxMin-y nv-axisMin-y" transform="translate(0,220)"><text style="opacity: 1;" dy=".32em" y="0" x="-3" text-anchor="end">0</text></g><g class="nv-axisMaxMin nv-axisMaxMin-y nv-axisMax-y" transform="translate(0,0)"><text style="opacity: 1;" dy=".32em" y="0" x="-3" text-anchor="end">63</text></g></g></g><g class="nv-barsWrap nvd3-svg"><g class="nvd3 nv-wrap nv-multibar" transform="translate(0,0)"><defs><clipPath id="nv-edge-clip-2665"><rect width="1766" height="220"></rect></clipPath></defs><g clip-path="url(#nv-edge-clip-5782)"><g class="nv-groups"><g style="stroke-opacity: 1; fill-opacity: 0.75; fill: rgb(31, 119, 180); stroke: rgb(31, 119, 180);" class="nv-group nv-series-0"><rect class="nv-bar positive" x="0" y="202.53968253968256" height="17.46031746031744" width="157.36633663366337" transform="translate(17.485148514851485,0)" style="fill: rgb(31, 119, 180); stroke: rgb(31, 119, 180);"></rect><rect class="nv-bar positive" x="0" y="192.06349206349208" height="27.936507936507923" width="157.36633663366337" transform="translate(192.33663366336634,0)" style="fill: rgb(31, 119, 180); stroke: rgb(31, 119, 180);"></rect><rect class="nv-bar positive" x="0" y="192.06349206349208" height="27.936507936507923" width="157.36633663366337" transform="translate(367.18811881188117,0)" style="fill: rgb(31, 119, 180); stroke: rgb(31, 119, 180);"></rect><rect class="nv-bar positive" x="0" y="216.5079365079365" height="3.492063492063494" width="157.36633663366337" transform="translate(542.0396039603961,0)" style="fill: rgb(31, 119, 180); stroke: rgb(31, 119, 180);"></rect><rect class="nv-bar positive" x="0" y="206.03174603174602" height="13.968253968253975" width="157.36633663366337" transform="translate(716.8910891089109,0)" style="fill: rgb(31, 119, 180); stroke: rgb(31, 119, 180);"></rect><rect class="nv-bar positive" x="0" y="216.5079365079365" height="3.492063492063494" width="157.36633663366337" transform="translate(891.7425742574258,0)" style="fill: rgb(31, 119, 180); stroke: rgb(31, 119, 180);"></rect><rect class="nv-bar positive" x="0" y="66.34920634920636" height="153.65079365079364" width="157.36633663366337" transform="translate(1066.5940594059407,0)" style="fill: rgb(31, 119, 180); stroke: rgb(31, 119, 180);"></rect><rect class="nv-bar positive" x="0" y="209.52380952380952" height="10.476190476190482" width="157.36633663366337" transform="translate(1241.4455445544554,0)" style="fill: rgb(31, 119, 180); stroke: rgb(31, 119, 180);"></rect><rect class="nv-bar positive" x="0" y="0" height="220" width="157.36633663366337" transform="translate(1416.2970297029703,0)" style="fill: rgb(31, 119, 180); stroke: rgb(31, 119, 180);"></rect><rect class="nv-bar positive" x="0" y="188.57142857142858" height="31.428571428571416" width="157.36633663366337" transform="translate(1591.1485148514853,0)" style="fill: rgb(31, 119, 180); stroke: rgb(31, 119, 180);"></rect></g></g></g></g></g><g class="nv-legendWrap nvd3-svg" transform="translate(180,-30)"><g class="nvd3 nv-legend" transform="translate(0,5)"><g transform="translate(1524.6666660308838,5)"><g class="nv-series" transform="translate(0,5)"><circle style="stroke-width: 2px; fill: rgb(31, 119, 180); fill-opacity: 1; stroke: rgb(31, 119, 180);" class="nv-legend-symbol" r="5"></circle><text text-anchor="start" class="nv-legend-text" dy=".32em" dx="8" fill="#000">count</text></g></g></g></g><g class="nv-controlsWrap nvd3-svg" transform="translate(0,-30)"><g class="nvd3 nv-legend" transform="translate(0,5)"><g transform="translate(26,5)"><g class="nv-series" transform="translate(0,5)"><circle style="stroke-width: 2px; fill: rgb(68, 68, 68); fill-opacity: 1; stroke: rgb(68, 68, 68);" class="nv-legend-symbol" r="5"></circle><text text-anchor="start" class="nv-legend-text" dy=".32em" dx="8" fill="#000">Grouped</text></g><g class="nv-series" transform="translate(78.66666793823242,5)"><circle style="stroke-width: 2px; fill: rgb(68, 68, 68); fill-opacity: 0; stroke: rgb(68, 68, 68);" class="nv-legend-symbol" r="5"></circle><text text-anchor="start" class="nv-legend-text" dy=".32em" dx="8" fill="#000">Stacked</text></g></g></g></g><g class="nv-interactive"></g></g></g></svg>